<svg xmlns="http://www.w3.org/2000/svg" width="19.268" height="19.268" viewBox="0 0 19.268 19.268">
  <g id="Layer_5" data-name="Layer 5" transform="translate(0 0)">
    <path id="Path_24602" data-name="Path 24602" d="M4,8.817V19.254a4.014,4.014,0,0,0,4.014,4.014H19.254a4.014,4.014,0,0,0,4.014-4.014V8.817Zm13.648,8.261L15.376,19.35a2.408,2.408,0,0,1-3.4,0L9.7,17.078a.8.8,0,0,1,1.132-1.132l2,2.039v-6.76a.8.8,0,0,1,1.606,0v6.76l2.039-2.039a.815.815,0,1,1,1.172,1.132Zm5.315-9.867H4.305l.5-1A4.014,4.014,0,0,1,8.391,4H18.876a4.014,4.014,0,0,1,3.589,2.216Z" transform="translate(-4 -4)"/>
  </g>
</svg>
