<svg xmlns="http://www.w3.org/2000/svg" width="14.88" height="11.16" viewBox="0 0 14.88 11.16">
  <path id="Icon_awesome-image" data-name="Icon awesome-image" d="M13.485,15.66H1.395A1.4,1.4,0,0,1,0,14.265V5.895A1.4,1.4,0,0,1,1.395,4.5h12.09A1.4,1.4,0,0,1,14.88,5.895v8.37A1.4,1.4,0,0,1,13.485,15.66ZM3.255,6.127A1.627,1.627,0,1,0,4.882,7.755,1.627,1.627,0,0,0,3.255,6.127ZM1.86,13.8H13.02V10.545L10.476,8a.349.349,0,0,0-.493,0L6.045,11.94,4.432,10.327a.349.349,0,0,0-.493,0L1.86,12.4Z" transform="translate(0 -4.5)" fill="#fff"/>
</svg>
