<svg xmlns="http://www.w3.org/2000/svg" width="11.188" height="11.16" viewBox="0 0 11.188 11.16">
  <path id="Icon_material-slow-motion-video" data-name="Icon material-slow-motion-video" d="M9.244,7.416,7.533,6.131v5.047l1.71-1.284L10.9,8.655Zm0,0L7.533,6.131v5.047l1.71-1.284L10.9,8.655Zm0,0L7.533,6.131v5.047l1.71-1.284L10.9,8.655ZM8.094,4.208V3.075A5.579,5.579,0,0,0,5.111,4.314l.8.8A4.453,4.453,0,0,1,8.094,4.208Zm-2.978,1.7-.8-.8A5.579,5.579,0,0,0,3.075,8.094H4.208A4.453,4.453,0,0,1,5.116,5.907ZM4.208,9.216H3.075A5.579,5.579,0,0,0,4.314,12.2l.8-.8A4.412,4.412,0,0,1,4.208,9.216Zm.9,3.78a5.6,5.6,0,0,0,2.983,1.239V13.1a4.453,4.453,0,0,1-2.187-.908l-.8.8Zm9.152-4.341a5.616,5.616,0,0,1-5.019,5.58V13.1a4.486,4.486,0,0,0,0-8.894V3.075A5.616,5.616,0,0,1,14.263,8.655Z" transform="translate(-3.075 -3.075)" fill="#fff"/>
</svg>
